<svg width="150" height="150" viewBox="0 0 150 150" fill="none" xmlns="http://www.w3.org/2000/svg">
<path d="M123.361 61.3063C123.184 60.6589 122.799 60.0876 122.266 59.6804C121.733 59.2731 121.08 59.0524 120.409 59.0523H109.909C109.518 58.1703 109.103 57.3106 108.662 56.4732L115.634 49.5042C116.142 48.997 116.456 48.3271 116.52 47.6118C116.584 46.8966 116.394 46.1817 115.984 45.5922C111.871 39.7035 106.554 34.7562 100.384 31.0783C99.7991 30.7311 99.1153 30.5886 98.4405 30.6731C97.7656 30.7577 97.1381 31.0645 96.657 31.5453L89.313 38.8903C88.7503 38.6563 88.182 38.4382 87.608 38.2362V28.1202C87.608 27.4213 87.3687 26.7434 86.9299 26.1994C86.491 25.6554 85.8791 25.2781 85.196 25.1303C78.1867 23.6232 70.9372 23.6232 63.928 25.1303C63.2449 25.2781 62.6331 25.6555 62.1945 26.1995C61.7558 26.7435 61.5167 27.4214 61.517 28.1202V38.2393C60.943 38.4393 60.3763 38.6573 59.817 38.8933L52.473 31.5483C51.9924 31.0666 51.3648 30.7592 50.6897 30.6746C50.0146 30.59 49.3305 30.7331 48.746 31.0812C42.5759 34.7587 37.2584 39.7061 33.146 45.5953C32.7355 46.1846 32.5456 46.8996 32.6096 47.6149C32.6736 48.3302 32.9874 49.0002 33.496 49.5073L40.468 56.4813C40.0273 57.3173 39.6117 58.1773 39.221 59.0613H28.721C28.0499 59.0614 27.3975 59.2821 26.8641 59.6894C26.3307 60.0966 25.9459 60.6679 25.769 61.3153C24.593 65.634 23.9981 70.0903 24 74.5662C24.002 77.2489 24.213 79.9273 24.631 82.5772C24.7444 83.2979 25.1112 83.9545 25.6656 84.4287C26.22 84.903 26.9254 85.1638 27.655 85.1643H37.447C37.8522 86.5731 38.3356 87.9582 38.895 89.3133L36.15 92.0593C36.087 92.1218 36.0286 92.1886 35.975 92.2593L31.556 96.6782C31.0749 97.1594 30.768 97.7873 30.6838 98.4625C30.5996 99.1376 30.7429 99.8216 31.091 100.406C34.7731 106.563 39.7143 111.873 45.591 115.987C46.1807 116.399 46.8965 116.589 47.6127 116.525C48.3288 116.461 48.9995 116.147 49.507 115.637L56.477 108.669C58.1036 109.532 59.7907 110.276 61.525 110.895V121.011C61.5246 121.71 61.7636 122.388 62.2021 122.932C62.6406 123.476 63.2521 123.853 63.935 124.001C70.9446 125.517 78.1973 125.517 85.207 124.001C85.8898 123.853 86.5014 123.476 86.9397 122.932C87.378 122.388 87.6167 121.71 87.616 121.011V110.89C89.3506 110.271 91.038 109.527 92.665 108.664L99.635 115.632C100.142 116.142 100.813 116.456 101.529 116.52C102.245 116.584 102.961 116.394 103.551 115.982C109.428 111.868 114.369 106.558 118.051 100.401C118.399 99.8167 118.543 99.1327 118.459 98.4574C118.375 97.7821 118.067 97.1543 117.586 96.6733L113.167 92.2553C113.111 92.1873 113.05 92.1212 112.992 92.0552L110.248 89.3113C110.808 87.9561 111.291 86.5702 111.694 85.1603H121.487C122.217 85.1598 122.922 84.899 123.476 84.4248C124.031 83.9505 124.398 83.2939 124.511 82.5732C124.929 79.9234 125.14 77.2449 125.142 74.5622C125.145 70.0844 124.551 65.6262 123.376 61.3052L123.361 61.3063Z" fill="white" stroke="#0D1C2C" stroke-width="2" stroke-miterlimit="10"/>
<path d="M74.5564 95.8112C84.6063 95.8112 92.7534 87.6642 92.7534 77.6142C92.7534 67.5643 84.6063 59.4172 74.5564 59.4172C64.5064 59.4172 56.3594 67.5643 56.3594 77.6142C56.3594 87.6642 64.5064 95.8112 74.5564 95.8112Z" fill="white" stroke="#0D1C2C" stroke-width="2" stroke-miterlimit="10"/>
<path d="M74.6045 71.1973C81.1635 71.1973 86.4805 65.8802 86.4805 59.3213C86.4805 52.7623 81.1635 47.4453 74.6045 47.4453C68.0456 47.4453 62.7285 52.7623 62.7285 59.3213C62.7285 65.8802 68.0456 71.1973 74.6045 71.1973Z" fill="white"/>
<path d="M74.7752 62.2513C76.3348 62.2513 77.5992 60.9869 77.5992 59.4273C77.5992 57.8676 76.3348 56.6033 74.7752 56.6033C73.2155 56.6033 71.9512 57.8676 71.9512 59.4273C71.9512 60.9869 73.2155 62.2513 74.7752 62.2513Z" fill="white"/>
</svg>
