<svg width="150" height="150" viewBox="0 0 150 150" fill="none" xmlns="http://www.w3.org/2000/svg">
<path d="M34.3145 70.4631V30.4172C34.3145 30.8283 34.3955 31.2355 34.5529 31.6154C34.7102 31.9952 34.9408 32.3404 35.2316 32.6311C35.5223 32.9218 35.8674 33.1525 36.2473 33.3098C36.6272 33.4672 37.0343 33.5482 37.4454 33.5482H57.5315C58.3619 33.5482 59.1583 33.2183 59.7455 32.6311C60.3327 32.0439 60.6625 31.2476 60.6625 30.4172V10.3322C60.6625 9.92103 60.5814 9.51391 60.4241 9.13409C60.2667 8.75428 60.0361 8.40919 59.7454 8.11853C59.4546 7.82787 59.1095 7.59736 58.7296 7.44012C58.3497 7.28289 57.9426 7.20202 57.5315 7.20215H112.053C112.465 7.20202 112.872 7.28289 113.252 7.44012C113.631 7.59736 113.977 7.82787 114.267 8.11853C114.558 8.40919 114.789 8.75428 114.946 9.13409C115.104 9.51391 115.184 9.92103 115.184 10.3322V70.4631" stroke="#0D1C2C" stroke-width="2" stroke-miterlimit="10"/>
<path d="M58.3321 7L34.1201 31.228" stroke="#0D1C2C" stroke-width="2.277" stroke-miterlimit="10"/>
<path d="M106.493 15.614H73.4277" stroke="#0D1C2C" stroke-width="2" stroke-miterlimit="10" stroke-linecap="round"/>
<path d="M106.493 22.614H73.4277" stroke="#0D1C2C" stroke-width="2" stroke-miterlimit="10" stroke-linecap="round"/>
<path d="M16 53.4529V46.14H41.594V42.24L52.922 49.79L41.594 57.345V53.4449L16 53.4529Z" fill="white" stroke="#0D1C2C" stroke-width="2" stroke-miterlimit="10"/>
<path d="M108.326 53.453V57.353L96.998 49.798L108.326 42.248V46.148H133.926V53.461L108.326 53.453Z" fill="white" stroke="#0D1C2C" stroke-width="2" stroke-miterlimit="10"/>
<path d="M52.9564 100.746C55.4364 101.64 58.0467 102.119 60.6825 102.164C63.3594 102.195 66.0008 101.55 68.3624 100.289C72.0629 98.1408 74.9304 94.8066 76.5005 90.8261L86.3065 94.1861C89.8065 95.3981 92.7294 95.2151 94.9924 93.6371C98.6274 91.1231 98.8105 86.0261 98.8325 85.7971C98.8434 85.3573 98.7143 84.9253 98.4637 84.5637C98.2131 84.202 97.8541 83.9294 97.4384 83.7851L69.4594 74.1391C66.603 73.1845 63.4869 73.3815 60.7734 74.6881L59.3795 75.3741C58.5166 75.7922 57.5797 76.0358 56.6224 76.0907C55.6651 76.1456 54.7065 76.0108 53.8015 75.6941L51.4704 74.8711C51.3429 74.7843 51.2044 74.715 51.0584 74.6651L36.7035 69.7501C36.185 69.5739 35.6179 69.6096 35.1257 69.8496C34.6335 70.0895 34.256 70.5141 34.0754 71.0311L22.0284 106.117C21.9392 106.374 21.9016 106.645 21.9177 106.917C21.9338 107.188 22.0033 107.453 22.1223 107.698C22.2412 107.942 22.4072 108.16 22.6108 108.34C22.8144 108.52 23.0514 108.658 23.3084 108.746L37.6405 113.66C37.8549 113.73 38.0781 113.768 38.3034 113.775C38.7351 113.774 39.156 113.64 39.508 113.39C39.8601 113.14 40.1261 112.787 40.2695 112.38L51.6305 79.3271" fill="white"/>
<path d="M52.9564 100.746C55.4364 101.64 58.0467 102.119 60.6825 102.164C63.3594 102.195 66.0008 101.55 68.3624 100.289C72.0629 98.1408 74.9304 94.8066 76.5005 90.8261L86.3065 94.1861C89.8065 95.3981 92.7294 95.2151 94.9924 93.6371C98.6274 91.1231 98.8105 86.0261 98.8325 85.7971C98.8434 85.3573 98.7143 84.9253 98.4637 84.5637C98.2131 84.202 97.8541 83.9294 97.4384 83.7851L69.4594 74.1391C66.603 73.1845 63.4869 73.3815 60.7734 74.6881L59.3795 75.3741C58.5166 75.7922 57.5797 76.0358 56.6224 76.0907C55.6651 76.1456 54.7065 76.0108 53.8015 75.6941L51.4704 74.8711C51.3429 74.7843 51.2044 74.715 51.0584 74.6651L36.7035 69.7501C36.185 69.5739 35.6179 69.6096 35.1257 69.8496C34.6335 70.0895 34.256 70.5141 34.0754 71.0311L22.0284 106.117C21.9392 106.374 21.9016 106.645 21.9177 106.917C21.9338 107.188 22.0033 107.453 22.1223 107.698C22.2412 107.942 22.4072 108.16 22.6108 108.34C22.8144 108.52 23.0514 108.658 23.3084 108.746L37.6405 113.66C37.8549 113.73 38.0781 113.768 38.3034 113.775C38.7351 113.774 39.156 113.64 39.508 113.39C39.8601 113.14 40.1261 112.787 40.2695 112.38L51.6305 79.3271" stroke="#0D1C2C" stroke-width="2" stroke-miterlimit="10" stroke-linecap="round"/>
<path d="M115.525 71.9458L101.918 78.6131L118.23 111.904L131.837 105.236L115.525 71.9458Z" fill="white" stroke="#0D1C2C" stroke-width="2" stroke-miterlimit="10"/>
<path d="M57.4132 105.867L47.4703 110.736C46.7064 111.104 46.0237 111.621 45.4623 112.256C44.9009 112.892 44.4723 113.633 44.2013 114.436C43.7452 115.735 43.7212 117.147 44.1332 118.461C44.5452 119.775 45.3709 120.921 46.4872 121.727C45.7534 122.683 45.3005 123.825 45.1794 125.024C45.0582 126.223 45.2736 127.433 45.8013 128.516C46.1692 129.28 46.6859 129.963 47.3213 130.524C47.9567 131.085 48.6979 131.514 49.5013 131.785C50.1638 132.01 50.8585 132.126 51.5583 132.128C51.5263 133.166 51.7542 134.195 52.2212 135.122C52.7551 136.206 53.5819 137.119 54.6081 137.758C55.6342 138.396 56.8187 138.734 58.0273 138.734C59.0111 138.738 59.9821 138.511 60.8622 138.071L62.3243 137.363C62.3956 138.148 62.6048 138.914 62.9423 139.626C63.4763 140.71 64.3031 141.623 65.3293 142.261C66.3554 142.899 67.5399 143.237 68.7483 143.237C69.7319 143.241 70.7026 143.014 71.5823 142.574L97.6642 129.819C103.463 126.986 108.822 123.329 113.573 118.962L119.402 113.59L132.751 107.052C132.996 106.934 133.215 106.768 133.396 106.565C133.577 106.362 133.716 106.125 133.805 105.868C133.894 105.611 133.932 105.339 133.916 105.068C133.9 104.796 133.83 104.531 133.711 104.286L117.393 71.0301C117.274 70.7854 117.108 70.5666 116.904 70.3863C116.7 70.206 116.463 70.0676 116.205 69.9791C115.688 69.802 115.122 69.8347 114.628 70.0701L101.004 76.7221C100.759 76.8405 100.54 77.0059 100.36 77.2091C100.179 77.4122 100.04 77.649 99.9505 77.906C99.8613 78.1629 99.8237 78.4349 99.8398 78.7064C99.8558 78.9779 99.9253 79.2435 100.044 79.4881L115.679 111.421" fill="white"/>
<path d="M57.4132 105.867L47.4703 110.736C46.7064 111.104 46.0237 111.621 45.4623 112.256C44.9009 112.892 44.4723 113.633 44.2013 114.436C43.7452 115.735 43.7212 117.147 44.1332 118.461C44.5452 119.775 45.3709 120.921 46.4872 121.727C45.7534 122.683 45.3005 123.825 45.1794 125.024C45.0582 126.223 45.2736 127.433 45.8013 128.516C46.1692 129.28 46.6859 129.963 47.3213 130.524C47.9567 131.085 48.6979 131.514 49.5013 131.785C50.1638 132.01 50.8585 132.126 51.5583 132.128C51.5263 133.166 51.7542 134.195 52.2212 135.122C52.7551 136.206 53.5819 137.119 54.6081 137.758C55.6342 138.396 56.8187 138.734 58.0273 138.734C59.0111 138.738 59.9821 138.511 60.8622 138.071L62.3243 137.363C62.3956 138.148 62.6048 138.914 62.9423 139.626C63.4763 140.71 64.3031 141.623 65.3293 142.261C66.3554 142.899 67.5399 143.237 68.7483 143.237C69.7319 143.241 70.7026 143.014 71.5823 142.574L97.6642 129.819C103.463 126.986 108.822 123.329 113.573 118.962L119.402 113.59L132.751 107.052C132.996 106.934 133.215 106.768 133.396 106.565C133.577 106.362 133.716 106.125 133.805 105.868C133.894 105.611 133.932 105.339 133.916 105.068C133.9 104.796 133.83 104.531 133.711 104.286L117.393 71.0301C117.274 70.7854 117.108 70.5666 116.904 70.3863C116.7 70.206 116.463 70.0676 116.205 69.9791C115.688 69.802 115.122 69.8347 114.628 70.0701L101.004 76.7221C100.759 76.8405 100.54 77.0059 100.36 77.2091C100.179 77.4122 100.04 77.649 99.9505 77.906C99.8613 78.1629 99.8237 78.4349 99.8398 78.7064C99.8558 78.9779 99.9253 79.2435 100.044 79.4881L115.679 111.421" stroke="#0D1C2C" stroke-width="2" stroke-miterlimit="10" stroke-linecap="round"/>
<path d="M62.9697 137.034L68.0427 134.554L82.3068 127.582" fill="white"/>
<path d="M62.9697 137.034L68.0427 134.554L82.3068 127.582" stroke="#0D1C2C" stroke-width="2" stroke-miterlimit="10" stroke-linecap="round"/>
<path d="M51.5615 132.131L76.6185 119.268" stroke="#0D1C2C" stroke-width="2" stroke-miterlimit="10" stroke-linecap="round"/>
<path d="M46.4873 121.731L68.0233 112.545" stroke="#0D1C2C" stroke-width="2" stroke-miterlimit="10" stroke-linecap="round"/>
<path d="M78.3684 46.8171C78.0083 46.4883 77.5888 46.2311 77.1324 46.0591C76.6744 45.8831 76.0575 45.6892 75.2815 45.4772V41.5771C75.646 41.6808 75.9762 41.8797 76.2383 42.1533C76.5003 42.427 76.6847 42.7655 76.7725 43.1342C76.8132 43.4182 76.9571 43.6772 77.1769 43.8617C77.3966 44.0462 77.6767 44.1432 77.9635 44.1342C78.118 44.1365 78.2713 44.1072 78.4141 44.048C78.5568 43.9889 78.6859 43.9011 78.7935 43.7902C78.9027 43.6854 78.9894 43.5595 79.0482 43.42C79.107 43.2805 79.1368 43.1305 79.1355 42.9791C79.1257 42.6566 79.0473 42.34 78.9055 42.0502C78.7391 41.6921 78.5206 41.3605 78.2574 41.0662C77.9174 40.6603 77.4874 40.3394 77.0015 40.1292C76.4524 39.9044 75.8725 39.7641 75.2815 39.7131V38.7031C75.2815 38.1891 75.0815 37.9318 74.6815 37.9312C74.2875 37.9312 74.0914 38.1941 74.0914 38.7231V39.7131C72.9896 39.7444 71.9357 40.1702 71.1215 40.9131C70.5598 41.5425 70.2096 42.332 70.1199 43.1708C70.0302 44.0095 70.2056 44.8553 70.6215 45.5892C70.9637 46.106 71.4363 46.5234 71.9915 46.7991C72.6647 47.1256 73.368 47.3862 74.0914 47.5771V51.9341C73.7206 51.8414 73.3754 51.6664 73.0814 51.4222C72.8418 51.216 72.6486 50.9614 72.5144 50.6752C72.3465 50.2909 72.199 49.898 72.0725 49.4982C72.0073 49.2728 71.8659 49.077 71.6725 48.9442C71.4614 48.805 71.2121 48.7351 70.9595 48.7441C70.7957 48.7406 70.633 48.7713 70.4818 48.8344C70.3306 48.8974 70.1942 48.9913 70.0814 49.1102C69.972 49.2145 69.8848 49.3399 69.8248 49.4787C69.7649 49.6175 69.7334 49.7669 69.7324 49.9182C69.7367 50.3462 69.8251 50.7692 69.9924 51.1631C70.1885 51.6138 70.4639 52.0257 70.8054 52.3792C71.1964 52.7905 71.6617 53.1244 72.1765 53.3632C72.783 53.6396 73.4311 53.8136 74.0945 53.8782V56.4092C74.0796 56.6298 74.126 56.8502 74.2285 57.0461C74.283 57.1192 74.3554 57.1769 74.4388 57.2137C74.5222 57.2505 74.6138 57.2651 74.7045 57.2562C74.7999 57.2681 74.8967 57.2499 74.9813 57.2042C75.0659 57.1585 75.1342 57.0875 75.1765 57.0012C75.2633 56.7411 75.3002 56.467 75.2854 56.1932V53.8582C76.1011 53.8067 76.8938 53.5671 77.6014 53.1581C78.2236 52.7939 78.7342 52.2661 79.0775 51.6321C79.4096 51.0181 79.5816 50.3302 79.5775 49.6321C79.5844 49.092 79.4766 48.5566 79.2615 48.0612C79.058 47.589 78.7535 47.167 78.3695 46.8251L78.3684 46.8171ZM74.0914 45.1392C73.6328 44.9904 73.2062 44.7571 72.8335 44.4512C72.5614 44.1311 72.4143 43.7234 72.4194 43.3034C72.4246 42.8834 72.5816 42.4794 72.8615 42.1661C73.2219 41.873 73.6415 41.6612 74.0914 41.5452V45.1392ZM76.7455 51.2742C76.3551 51.6818 75.8406 51.9484 75.2825 52.0322V47.9321C75.8212 48.0788 76.3239 48.3348 76.7594 48.6841C76.93 48.8449 77.0633 49.0411 77.1497 49.259C77.2361 49.4769 77.2735 49.7111 77.2594 49.9451C77.2653 50.4392 77.0814 50.9168 76.7455 51.2792" fill="#0D1C2C"/>
</svg>
