<svg width="150" height="150" viewBox="0 0 150 150" fill="none" xmlns="http://www.w3.org/2000/svg">
<path d="M33.709 106.259H16V91.196C16 91.196 74.1089 67.131 132.414 61.261C132.414 61.261 136.814 72.707 124.587 85.914C124.587 85.914 109.131 101.077 109.131 106.457H77.24" stroke="#0D1C2C" stroke-width="2" stroke-miterlimit="10" stroke-linecap="round"/>
<path d="M42.3857 106.457H50.7987" stroke="#0D1C2C" stroke-width="2" stroke-miterlimit="10" stroke-linecap="round"/>
<path d="M59.7988 106.457H69.3858" stroke="#0D1C2C" stroke-width="2" stroke-miterlimit="10" stroke-linecap="round"/>
<path d="M30.1272 86.001L29.8662 61.218C29.8662 61.218 53.0842 53.918 89.6052 53.653C89.8662 53.392 108.388 64.609 108.388 64.609" stroke="#0D1C2C" stroke-width="2" stroke-miterlimit="10"/>
<path d="M29.8662 72.957C29.8662 72.957 75.5182 59.131 96.1272 57.566" stroke="#0D1C2C" stroke-width="2" stroke-miterlimit="10"/>
<path d="M38.475 58.609L35.084 44.261L47.345 44L50.9969 56.261" stroke="#0D1C2C" stroke-width="2" stroke-miterlimit="10"/>
<path d="M59.0179 56.174L55.627 44.957L68.1489 45.218L71.736 54.74" stroke="#0D1C2C" stroke-width="2" stroke-miterlimit="10"/>
<path d="M80.344 85.0659C81.3166 85.0659 82.105 84.2775 82.105 83.3049C82.105 82.3324 81.3166 81.5439 80.344 81.5439C79.3714 81.5439 78.583 82.3324 78.583 83.3049C78.583 84.2775 79.3714 85.0659 80.344 85.0659Z" fill="#0D1C2D"/>
<path d="M87.5833 82.4571C88.5558 82.4571 89.3443 81.6686 89.3443 80.6961C89.3443 79.7235 88.5558 78.9351 87.5833 78.9351C86.6107 78.9351 85.8223 79.7235 85.8223 80.6961C85.8223 81.6686 86.6107 82.4571 87.5833 82.4571Z" fill="#0D1C2D"/>
<path d="M94.7571 79.4571C95.7297 79.4571 96.5181 78.6686 96.5181 77.6961C96.5181 76.7235 95.7297 75.9351 94.7571 75.9351C93.7845 75.9351 92.9961 76.7235 92.9961 77.6961C92.9961 78.6686 93.7845 79.4571 94.7571 79.4571Z" fill="#0D1C2D"/>
</svg>
