<svg width="150" height="150" viewBox="0 0 150 150" fill="none" xmlns="http://www.w3.org/2000/svg">
<path d="M108.493 48.11C108.493 46.0531 107.883 44.0424 106.741 42.3321C105.598 40.6218 103.974 39.2889 102.073 38.5017C100.173 37.7146 98.0818 37.5086 96.0644 37.9098C94.047 38.3111 92.1939 39.3016 90.7395 40.7561C89.285 42.2106 88.2945 44.0637 87.8932 46.0811C87.4919 48.0985 87.6978 50.1896 88.485 52.09C89.2722 53.9903 90.6052 55.6146 92.3154 56.7573C94.0257 57.9001 96.0365 58.51 98.0934 58.51C100.85 58.5058 103.493 57.4087 105.443 55.4593C107.392 53.5098 108.489 50.867 108.493 48.11" stroke="#0F1D2C" stroke-width="2" stroke-miterlimit="10"/>
<path d="M117.284 82.336V74.8021C117.281 71.4213 115.936 68.1802 113.545 65.7897C111.154 63.3993 107.913 62.0547 104.532 62.051H68.4895C66.9842 62.0526 65.541 62.6516 64.477 63.7164C63.413 64.7812 62.815 66.2247 62.8145 67.73" stroke="#0F1D2C" stroke-width="2" stroke-miterlimit="10" stroke-linecap="round"/>
<path d="M62.8145 67.73C62.815 69.2354 63.413 70.6789 64.477 71.7437C65.541 72.8085 66.9842 73.4074 68.4895 73.409H85.1895V82.336" stroke="#0F1D2C" stroke-width="2" stroke-miterlimit="10" stroke-linecap="round"/>
<path d="M130.233 92.5151V31.786C130.232 31.3128 130.043 30.8595 129.708 30.5249C129.374 30.1903 128.92 30.0016 128.447 30" stroke="#0D1C2C" stroke-width="2" stroke-miterlimit="10" stroke-linecap="round"/>
<path d="M128.447 30H22.606C21.6505 30.0026 20.7348 30.3835 20.0591 31.0591C19.3834 31.7348 19.0026 32.6505 19 33.606V92.306C18.9999 92.7796 19.0931 93.2485 19.2742 93.6861C19.4554 94.1237 19.721 94.5213 20.0558 94.8561C20.3907 95.191 20.7883 95.4566 21.2259 95.6378C21.6635 95.8189 22.1324 95.9122 22.606 95.912H26.917" stroke="#0D1C2C" stroke-width="2" stroke-miterlimit="10" stroke-linecap="round"/>
<path d="M110.677 111.881C110.677 111.881 116.025 114.164 113.05 119.838" stroke="#0D1C2C" stroke-width="2" stroke-miterlimit="10" stroke-linecap="round"/>
<path d="M103.226 94.237C101.494 94.2368 99.8006 94.7502 98.3604 95.7123C96.9202 96.6745 95.7976 98.042 95.1347 99.6422C94.4717 101.242 94.2981 103.003 94.6359 104.702C94.9737 106.401 95.8077 107.961 97.0323 109.186C98.257 110.411 99.8173 111.245 101.516 111.583C103.215 111.921 104.976 111.747 106.576 111.085C108.176 110.422 109.544 109.299 110.506 107.859C111.468 106.419 111.982 104.726 111.982 102.994C111.98 100.672 111.057 98.4464 109.415 96.8046C107.773 95.1629 105.547 94.2394 103.226 94.237Z" stroke="#0F1D2C" stroke-width="2" stroke-miterlimit="10"/>
<path d="M98.7003 91.679C98.3574 89.74 97.2583 88.0167 95.6447 86.8881C94.0312 85.7595 92.0353 85.3181 90.0963 85.661C88.1573 86.004 86.434 87.103 85.3054 88.7166C84.1768 90.3301 83.7354 92.326 84.0783 94.265" stroke="#0D1C2C" stroke-width="2" stroke-miterlimit="10" stroke-linecap="round"/>
<path d="M89.6768 111.881C89.6768 111.881 95.0247 114.164 92.0497 119.838" stroke="#0D1C2C" stroke-width="2" stroke-miterlimit="10" stroke-linecap="round"/>
<path d="M82.2258 94.237C80.4938 94.2368 78.8006 94.7502 77.3604 95.7123C75.9202 96.6745 74.7976 98.042 74.1347 99.6422C73.4717 101.242 73.2981 103.003 73.6359 104.702C73.9737 106.401 74.8077 107.961 76.0323 109.186C77.257 110.411 78.8173 111.245 80.516 111.583C82.2148 111.921 83.9755 111.747 85.5757 111.085C87.1759 110.422 88.5436 109.299 89.5059 107.859C90.4682 106.419 90.9818 104.726 90.9818 102.994C90.9797 100.672 90.0565 98.4464 88.415 96.8046C86.7734 95.1629 84.5475 94.2394 82.2258 94.237Z" stroke="#0F1D2C" stroke-width="2" stroke-miterlimit="10"/>
<path d="M77.7003 91.679C77.3574 89.74 76.2583 88.0167 74.6447 86.8881C73.0312 85.7595 71.0353 85.3181 69.0963 85.661C67.1573 86.004 65.434 87.103 64.3054 88.7166C63.1768 90.3301 62.7354 92.326 63.0783 94.265" stroke="#0D1C2C" stroke-width="2" stroke-miterlimit="10" stroke-linecap="round"/>
<path d="M68.6768 111.881C68.6768 111.881 74.0247 114.164 71.0497 119.838" stroke="#0D1C2C" stroke-width="2" stroke-miterlimit="10" stroke-linecap="round"/>
<path d="M61.2258 94.237C59.4938 94.2368 57.8006 94.7502 56.3604 95.7123C54.9202 96.6745 53.7976 98.042 53.1347 99.6422C52.4717 101.242 52.2981 103.003 52.6359 104.702C52.9737 106.401 53.8077 107.961 55.0323 109.186C56.257 110.411 57.8173 111.245 59.516 111.583C61.2148 111.921 62.9755 111.747 64.5757 111.085C66.1759 110.422 67.5436 109.299 68.5059 107.859C69.4682 106.419 69.9818 104.726 69.9818 102.994C69.9797 100.672 69.0565 98.4464 67.415 96.8046C65.7734 95.1629 63.5475 94.2394 61.2258 94.237Z" stroke="#0F1D2C" stroke-width="2" stroke-miterlimit="10"/>
<path d="M56.7013 91.679C56.3584 89.74 55.2593 88.0167 53.6457 86.8881C52.0322 85.7595 50.0363 85.3181 48.0973 85.661C46.1583 86.004 44.435 87.103 43.3064 88.7166C42.1778 90.3301 41.7364 92.326 42.0793 94.265" stroke="#0D1C2C" stroke-width="2" stroke-miterlimit="10" stroke-linecap="round"/>
<path d="M47.6777 111.881C47.6777 111.881 53.0257 114.164 50.0507 119.838" stroke="#0D1C2C" stroke-width="2" stroke-miterlimit="10" stroke-linecap="round"/>
<path d="M40.2268 94.237C38.4948 94.2368 36.8016 94.7502 35.3614 95.7123C33.9212 96.6745 32.7986 98.042 32.1357 99.6422C31.4727 101.242 31.2991 103.003 31.6369 104.702C31.9747 106.401 32.8087 107.961 34.0333 109.186C35.258 110.411 36.8183 111.245 38.517 111.583C40.2157 111.921 41.9765 111.747 43.5767 111.085C45.1769 110.422 46.5446 109.299 47.5069 107.859C48.4692 106.419 48.9828 104.726 48.9828 102.994C48.9807 100.672 48.0575 98.4464 46.4159 96.8046C44.7744 95.1629 42.5485 94.2394 40.2268 94.237" stroke="#0F1D2C" stroke-width="2" stroke-miterlimit="10"/>
<path d="M31.9524 111.881C31.9524 111.881 26.6044 114.164 29.5794 119.838" stroke="#0D1C2C" stroke-width="2" stroke-miterlimit="10" stroke-linecap="round"/>
<path d="M109.83 73.381V83.033" stroke="#0D1C2C" stroke-width="2" stroke-miterlimit="10" stroke-linecap="round"/>
</svg>
