<svg width="150" height="150" viewBox="0 0 150 150" fill="none" xmlns="http://www.w3.org/2000/svg">
<path d="M113.783 105.212H35.391C31.8613 105.212 29 108.073 29 111.603V111.734C29 115.264 31.8613 118.125 35.391 118.125H113.783C117.313 118.125 120.174 115.264 120.174 111.734V111.603C120.174 108.073 117.313 105.212 113.783 105.212Z" fill="white" stroke="#0D1C2C" stroke-width="2" stroke-miterlimit="10"/>
<path d="M74.5867 71.646C78.5846 71.646 81.8257 68.405 81.8257 64.407C81.8257 60.409 78.5846 57.168 74.5867 57.168C70.5887 57.168 67.3477 60.409 67.3477 64.407C67.3477 68.405 70.5887 71.646 74.5867 71.646Z" fill="white" stroke="#0D1C2C" stroke-width="2" stroke-miterlimit="10" stroke-linecap="round"/>
<path d="M114.492 105.212C114.492 105.112 114.5 105.012 114.5 104.912C114.5 94.3264 110.295 84.1743 102.81 76.6892C95.3244 69.2041 85.1725 64.999 74.5869 64.999C64.0013 64.999 53.8493 69.2041 46.3641 76.6892C38.879 84.1743 34.6738 94.3264 34.6738 104.912C34.6738 105.012 34.6809 105.112 34.6809 105.212H114.492Z" fill="white" stroke="#0D1C2C" stroke-width="2" stroke-miterlimit="10"/>
<path d="M74.5869 73.081C66.2443 73.081 58.2433 76.3951 52.3441 82.2943C46.445 88.1934 43.1309 96.1943 43.1309 104.537C43.1309 104.618 43.1358 104.697 43.1368 104.777" fill="white"/>
<path d="M74.5869 73.081C66.2443 73.081 58.2433 76.3951 52.3441 82.2943C46.445 88.1934 43.1309 96.1943 43.1309 104.537C43.1309 104.618 43.1358 104.697 43.1368 104.777" stroke="#0D1C2C" stroke-width="2" stroke-miterlimit="10" stroke-linecap="round"/>
<path d="M74.8729 32C74.8729 32 79.505 37.939 76.301 41.043C76.301 41.043 69.876 42.97 75.286 49.527" fill="white"/>
<path d="M74.8729 32C74.8729 32 79.505 37.939 76.301 41.043C76.301 41.043 69.876 42.97 75.286 49.527" stroke="#0D1C2C" stroke-width="2" stroke-miterlimit="10" stroke-linecap="round"/>
<path d="M89.7428 41.782C89.7428 41.782 94.3749 47.721 91.1709 50.826C91.1709 50.826 84.7449 52.752 90.1549 59.31" fill="white"/>
<path d="M89.7428 41.782C89.7428 41.782 94.3749 47.721 91.1709 50.826C91.1709 50.826 84.7449 52.752 90.1549 59.31" stroke="#0D1C2C" stroke-width="2" stroke-miterlimit="10" stroke-linecap="round"/>
<path d="M54.9167 41C54.9167 41 59.5487 46.939 56.3447 50.043C56.3447 50.043 49.9187 51.97 55.3287 58.527" fill="white"/>
<path d="M54.9167 41C54.9167 41 59.5487 46.939 56.3447 50.043C56.3447 50.043 49.9187 51.97 55.3287 58.527" stroke="#0D1C2C" stroke-width="2" stroke-miterlimit="10" stroke-linecap="round"/>
</svg>
