<svg width="150" height="150" viewBox="0 0 150 150" fill="none" xmlns="http://www.w3.org/2000/svg">
<path d="M108.74 27.307H34.13C32.4013 27.307 31 28.7084 31 30.437V129.568C31 131.297 32.4013 132.698 34.13 132.698H108.74C110.469 132.698 111.87 131.297 111.87 129.568V30.437C111.87 28.7084 110.469 27.307 108.74 27.307Z" fill="white" stroke="#0D1C2C" stroke-width="2" stroke-miterlimit="10"/>
<path d="M90.4049 19.113H52.4649C51.7039 19.113 51.0869 19.73 51.0869 20.491V32.495C51.0869 33.2561 51.7039 33.873 52.4649 33.873H90.4049C91.166 33.873 91.7829 33.2561 91.7829 32.495V20.491C91.7829 19.73 91.166 19.113 90.4049 19.113Z" fill="white" stroke="#0D1C2C" stroke-width="2.112" stroke-miterlimit="10"/>
<path d="M71.4348 11C69.2668 11.002 67.1854 11.8512 65.6347 13.3663C64.0841 14.8815 63.1869 16.9427 63.1348 19.11H79.7448C79.6925 16.9409 78.794 14.8783 77.2412 13.3629C75.6884 11.8474 73.6045 10.9994 71.4348 11V11Z" fill="white" stroke="#0D1C2C" stroke-width="2.112" stroke-miterlimit="10"/>
<path d="M56.3877 55.829H69.5617" stroke="#0D1C2C" stroke-width="2" stroke-miterlimit="10" stroke-linecap="round"/>
<path d="M44.7783 67.5681H83.9083" stroke="#0D1C2C" stroke-width="2" stroke-miterlimit="10" stroke-linecap="round"/>
<path d="M44.7783 78.394H67.6043" stroke="#0D1C2C" stroke-width="2" stroke-miterlimit="10" stroke-linecap="round"/>
<path d="M74.9092 78.394H75.0832" stroke="#0D1C2C" stroke-width="2" stroke-miterlimit="10" stroke-linecap="round"/>
<path d="M44.7783 55.829H50.3873" stroke="#0D1C2C" stroke-width="2" stroke-miterlimit="10" stroke-linecap="round"/>
<path d="M44.7783 97.829V110.351" stroke="#0D1C2C" stroke-width="2" stroke-miterlimit="10" stroke-linecap="round"/>
<path d="M61.2998 33.437V28.133" stroke="#0D1C2C" stroke-width="2.112" stroke-miterlimit="10" stroke-linecap="round"/>
<path d="M81.2998 33.437V28.133" stroke="#0D1C2C" stroke-width="2.112" stroke-miterlimit="10" stroke-linecap="round"/>
<path d="M106.938 122.567C106.578 122.238 106.158 121.981 105.702 121.809C105.244 121.633 104.627 121.439 103.851 121.227V117.327C104.215 117.431 104.545 117.63 104.807 117.904C105.069 118.178 105.254 118.516 105.342 118.885C105.384 119.168 105.528 119.426 105.748 119.609C105.967 119.793 106.247 119.889 106.533 119.88C106.687 119.883 106.841 119.853 106.983 119.794C107.126 119.735 107.255 119.647 107.363 119.536C107.472 119.432 107.559 119.306 107.618 119.166C107.676 119.027 107.706 118.877 107.705 118.726C107.695 118.404 107.617 118.087 107.475 117.797C107.308 117.439 107.09 117.108 106.827 116.813C106.487 116.407 106.057 116.086 105.571 115.876C105.022 115.651 104.442 115.51 103.851 115.459V114.45C103.851 113.935 103.651 113.677 103.251 113.678C102.851 113.679 102.654 113.942 102.661 114.469V115.459C101.559 115.491 100.505 115.917 99.6907 116.659C99.1292 117.288 98.779 118.078 98.6893 118.916C98.5996 119.755 98.7749 120.6 99.1907 121.334C99.5329 121.851 100.005 122.269 100.561 122.545C101.234 122.871 101.937 123.132 102.661 123.323V127.679C102.29 127.587 101.945 127.412 101.651 127.168C101.411 126.962 101.218 126.707 101.084 126.421C100.916 126.037 100.768 125.644 100.642 125.244C100.577 125.019 100.435 124.823 100.242 124.69C100.031 124.551 99.7814 124.481 99.5287 124.49C99.3649 124.487 99.2022 124.518 99.051 124.581C98.8998 124.644 98.7635 124.738 98.6508 124.857C98.5413 124.961 98.454 125.087 98.394 125.226C98.3341 125.364 98.3027 125.514 98.3018 125.665C98.3061 126.093 98.3945 126.515 98.5618 126.909C98.7576 127.36 99.033 127.772 99.3748 128.126C99.7659 128.537 100.231 128.871 100.746 129.11C101.352 129.386 102 129.56 102.664 129.625V132.155C102.649 132.376 102.695 132.597 102.798 132.793C102.852 132.866 102.925 132.924 103.008 132.961C103.092 132.997 103.183 133.012 103.274 133.003C103.369 133.015 103.466 132.997 103.551 132.951C103.635 132.905 103.703 132.834 103.746 132.748C103.833 132.488 103.869 132.214 103.855 131.94V129.605C104.67 129.554 105.463 129.314 106.171 128.905C106.793 128.541 107.304 128.013 107.647 127.378C107.979 126.764 108.151 126.076 108.147 125.378C108.154 124.838 108.046 124.302 107.831 123.807C107.628 123.334 107.323 122.913 106.939 122.571L106.938 122.567ZM102.661 120.884C102.202 120.735 101.775 120.502 101.403 120.196C101.131 119.876 100.984 119.469 100.989 119.049C100.994 118.629 101.151 118.225 101.431 117.912C101.791 117.619 102.211 117.407 102.661 117.291V120.884ZM105.315 127.02C104.924 127.427 104.41 127.694 103.852 127.777V123.677C104.391 123.824 104.893 124.08 105.329 124.43C105.499 124.591 105.633 124.787 105.719 125.005C105.805 125.223 105.843 125.457 105.829 125.691C105.834 126.185 105.651 126.663 105.315 127.025" fill="white"/>
<path d="M119.248 117.272C119.188 117.052 119.057 116.857 118.875 116.718C118.694 116.58 118.471 116.505 118.243 116.505H114.667C114.534 116.204 114.392 115.912 114.242 115.627L116.616 113.254C116.789 113.081 116.896 112.853 116.918 112.61C116.939 112.366 116.875 112.123 116.735 111.922C115.335 109.917 113.524 108.232 111.423 106.98C111.224 106.862 110.991 106.814 110.761 106.842C110.532 106.871 110.318 106.976 110.154 107.139L107.654 109.639C107.462 109.559 107.269 109.485 107.074 109.416V105.971C107.074 105.733 106.992 105.502 106.843 105.317C106.693 105.132 106.485 105.003 106.252 104.953C103.866 104.44 101.397 104.44 99.011 104.953C98.7785 105.003 98.5703 105.132 98.4209 105.317C98.2716 105.502 98.1901 105.733 98.19 105.971V109.416C97.9947 109.483 97.8013 109.557 97.61 109.639L95.11 107.139C94.9463 106.975 94.7327 106.87 94.5028 106.842C94.273 106.813 94.0401 106.862 93.841 106.98C91.74 108.232 89.9292 109.917 88.529 111.922C88.3891 112.123 88.3243 112.366 88.346 112.61C88.3678 112.853 88.4747 113.081 88.648 113.254L91.021 115.628C90.871 115.913 90.7297 116.206 90.597 116.507H87.022C86.7935 116.507 86.5713 116.582 86.3897 116.721C86.2081 116.859 86.0772 117.054 86.017 117.274C85.617 118.745 85.4152 120.262 85.417 121.786C85.4181 122.7 85.49 123.612 85.632 124.514C85.6706 124.759 85.7954 124.983 85.9841 125.144C86.1727 125.305 86.4128 125.394 86.661 125.394H89.996C90.1336 125.874 90.2983 126.346 90.489 126.807L89.554 127.742C89.5325 127.763 89.5124 127.785 89.494 127.809L87.994 129.314C87.8303 129.478 87.7257 129.691 87.6969 129.921C87.6681 130.151 87.7167 130.384 87.835 130.583C89.0894 132.677 90.7717 134.483 92.772 135.883C92.9729 136.023 93.2167 136.088 93.4606 136.066C93.7046 136.044 93.9331 135.937 94.106 135.764L96.471 133.4C97.0247 133.694 97.5993 133.948 98.19 134.158V137.6C98.1898 137.838 98.2711 138.069 98.4203 138.254C98.5695 138.439 98.7776 138.568 99.01 138.618C101.397 139.134 103.866 139.134 106.253 138.618C106.485 138.568 106.694 138.439 106.843 138.254C106.992 138.069 107.073 137.838 107.073 137.6V134.155C107.662 133.945 108.235 133.693 108.787 133.4L111.16 135.773C111.333 135.946 111.561 136.053 111.805 136.075C112.049 136.097 112.292 136.032 112.493 135.892C114.493 134.493 116.176 132.687 117.43 130.592C117.549 130.393 117.597 130.16 117.569 129.93C117.54 129.701 117.436 129.487 117.272 129.323L115.772 127.823C115.752 127.799 115.732 127.777 115.712 127.755L114.778 126.821C114.968 126.359 115.133 125.887 115.27 125.407H118.604C118.852 125.407 119.093 125.318 119.281 125.157C119.47 124.996 119.595 124.772 119.634 124.527C119.776 123.625 119.848 122.713 119.849 121.799C119.851 120.274 119.649 118.756 119.249 117.285L119.248 117.272Z" fill="white" stroke="#0D1C2C" stroke-width="2" stroke-miterlimit="10"/>
<path d="M102.632 129.021C106.054 129.021 108.828 126.247 108.828 122.825C108.828 119.403 106.054 116.629 102.632 116.629C99.2096 116.629 96.4355 119.403 96.4355 122.825C96.4355 126.247 99.2096 129.021 102.632 129.021Z" fill="white" stroke="#0D1C2C" stroke-width="2" stroke-miterlimit="10"/>
<path d="M102.647 120.639C104.879 120.639 106.69 118.829 106.69 116.596C106.69 114.363 104.879 112.553 102.647 112.553C100.414 112.553 98.6035 114.363 98.6035 116.596C98.6035 118.829 100.414 120.639 102.647 120.639Z" fill="white"/>
<path d="M102.647 117.967C103.404 117.967 104.017 117.354 104.017 116.597C104.017 115.84 103.404 115.227 102.647 115.227C101.891 115.227 101.277 115.84 101.277 116.597C101.277 117.354 101.891 117.967 102.647 117.967Z" fill="white"/>
</svg>
