<svg width="150" height="150" viewBox="0 0 150 150" fill="none" xmlns="http://www.w3.org/2000/svg">
<path d="M128.97 125.028L122.601 121.315C121.881 120.895 121.068 120.66 120.235 120.629C119.402 120.598 118.574 120.773 117.825 121.139L111.991 124.139C111.732 124.245 111.45 124.284 111.172 124.254C110.894 124.223 110.627 124.123 110.397 123.964L107.746 121.844C106.976 121.246 106.052 120.878 105.081 120.784C104.111 120.69 103.134 120.874 102.263 121.313L96.9561 124.139C96.5035 124.326 95.9956 124.326 95.5431 124.139L91.118 121.313C90.3812 120.85 89.5352 120.59 88.6656 120.56C87.7961 120.529 86.9339 120.728 86.166 121.137L80.5081 124.137C80.0535 124.322 79.5447 124.322 79.0901 124.137L74.318 121.311C73.5971 120.893 72.7848 120.658 71.952 120.628C71.1193 120.597 70.2917 120.771 69.542 121.135L63.879 124.135C63.4265 124.322 62.9186 124.322 62.4661 124.135L57.514 121.309C56.7612 120.875 55.9075 120.647 55.0386 120.647C54.1696 120.647 53.316 120.875 52.5631 121.309L47.431 124.135C46.9785 124.322 46.4706 124.322 46.0181 124.135L42.3041 121.664C41.582 121.175 40.7437 120.884 39.8737 120.822C39.0036 120.759 38.1325 120.928 37.348 121.309L31.3341 124.32C30.8798 124.498 30.3753 124.498 29.921 124.32L25.321 121.489C24.5371 121.053 23.6548 120.824 22.7576 120.824C21.8604 120.824 20.9781 121.053 20.1941 121.489L14 125.203" fill="white"/>
<path d="M128.97 125.028L122.601 121.315C121.881 120.895 121.068 120.66 120.235 120.629C119.402 120.598 118.574 120.773 117.825 121.139L111.991 124.139C111.732 124.245 111.45 124.284 111.172 124.254C110.894 124.223 110.627 124.123 110.397 123.964L107.746 121.844C106.976 121.246 106.052 120.878 105.081 120.784C104.111 120.69 103.134 120.874 102.263 121.313L96.9561 124.139C96.5035 124.326 95.9956 124.326 95.5431 124.139L91.118 121.313C90.3812 120.85 89.5352 120.59 88.6656 120.56C87.7961 120.529 86.9339 120.728 86.166 121.137L80.5081 124.137C80.0535 124.322 79.5447 124.322 79.0901 124.137L74.318 121.311C73.5971 120.893 72.7848 120.658 71.952 120.628C71.1193 120.597 70.2917 120.771 69.542 121.135L63.879 124.135C63.4265 124.322 62.9186 124.322 62.4661 124.135L57.514 121.309C56.7612 120.875 55.9075 120.647 55.0386 120.647C54.1696 120.647 53.316 120.875 52.5631 121.309L47.431 124.135C46.9785 124.322 46.4706 124.322 46.0181 124.135L42.3041 121.664C41.582 121.175 40.7437 120.884 39.8737 120.822C39.0036 120.759 38.1325 120.928 37.348 121.309L31.3341 124.32C30.8798 124.498 30.3753 124.498 29.921 124.32L25.321 121.489C24.5371 121.053 23.6548 120.824 22.7576 120.824C21.8604 120.824 20.9781 121.053 20.1941 121.489L14 125.203" stroke="#0D1C2C" stroke-width="2" stroke-miterlimit="10" stroke-linecap="round"/>
<path d="M81.7434 123.356C80.8564 123.887 79.9744 124.419 79.0924 123.887L74.3164 121.061C73.5962 120.642 72.7839 120.406 71.951 120.374C71.1182 120.342 70.2903 120.516 69.5404 120.88L63.8774 123.887C63.4225 124.063 62.9183 124.063 62.4634 123.887L57.5125 121.061C56.7601 120.625 55.9059 120.396 55.0364 120.396C54.1669 120.396 53.3128 120.625 52.5604 121.061L47.4335 123.887C46.9171 124.063 46.3569 124.063 45.8405 123.887L42.1215 121.412C41.4013 120.922 40.5641 120.631 39.6952 120.569C38.8263 120.508 37.9566 120.677 37.1744 121.061L36.6434 121.236C34.6748 119.744 33.0761 117.819 31.9714 115.61C30.8668 113.401 30.2858 110.967 30.2734 108.497V106.728H90.2374V108.497C90.3869 111.526 89.6666 114.535 88.1615 117.168C86.6564 119.8 84.4294 121.948 81.7434 123.356Z" fill="white" stroke="#0D1C2C" stroke-width="2" stroke-miterlimit="10"/>
<path d="M90.8791 54.3271H30.1941C29.3939 54.3271 28.7451 54.9759 28.7451 55.7761V79.5591C28.7451 80.3594 29.3939 81.0081 30.1941 81.0081H90.8791C91.6794 81.0081 92.3281 80.3594 92.3281 79.5591V55.7761C92.3281 54.9759 91.6794 54.3271 90.8791 54.3271Z" fill="white" stroke="#0D1C2C" stroke-width="2" stroke-miterlimit="10"/>
<path d="M30.2242 106.66L18.1963 81.366L60.2183 61.05L102.876 81.366L90.1884 106.66H30.2242Z" fill="white" stroke="#0D1C2C" stroke-width="2" stroke-miterlimit="10" stroke-linecap="round"/>
<path d="M76.2138 24H44.8578C43.9984 24 43.3018 24.6966 43.3018 25.556V52.771C43.3018 53.6304 43.9984 54.327 44.8578 54.327H76.2138C77.0731 54.327 77.7698 53.6304 77.7698 52.771V25.556C77.7698 24.6966 77.0731 24 76.2138 24Z" fill="white" stroke="#0D1C2C" stroke-width="2" stroke-miterlimit="10" stroke-linecap="round"/>
<path d="M62.4747 29.8511H58.5967C57.9285 29.8511 57.3867 30.3928 57.3867 31.0611V34.9391C57.3867 35.6073 57.9285 36.1491 58.5967 36.1491H62.4747C63.143 36.1491 63.6847 35.6073 63.6847 34.9391V31.0611C63.6847 30.3928 63.143 29.8511 62.4747 29.8511Z" fill="white" stroke="#0D1C2C" stroke-width="2" stroke-miterlimit="10" stroke-linecap="round"/>
<path d="M87.6735 54.355L92.2734 57.888C92.5999 58.149 93.0055 58.2911 93.4235 58.2911C93.8414 58.2911 94.2469 58.149 94.5734 57.888C97.032 56.2344 99.7982 55.0924 102.707 54.53C103.075 54.4367 103.407 54.235 103.659 53.9509C103.911 53.6668 104.072 53.3136 104.12 52.937L104.827 47.103H108.546L109.252 52.937C109.329 53.3025 109.5 53.6417 109.748 53.921C109.996 54.2004 110.313 54.4103 110.666 54.53C113.577 55.0923 116.344 56.2343 118.804 57.888C119.129 58.0657 119.494 58.1588 119.864 58.1588C120.235 58.1588 120.599 58.0657 120.924 57.888L125.524 54.355L128.175 57.006L124.637 61.606C124.38 61.8999 124.238 62.2773 124.238 62.668C124.238 63.0588 124.38 63.4362 124.637 63.73C126.295 66.187 127.439 68.9538 128 71.864C128.094 72.2319 128.296 72.5632 128.58 72.8152C128.864 73.0673 129.217 73.2285 129.593 73.278L135.427 73.984V77.878H135.251L129.413 78.585C129.049 78.6635 128.711 78.8349 128.433 79.0825C128.155 79.3301 127.945 79.6455 127.824 79.998C127.261 82.9078 126.117 85.6741 124.461 88.132C124.287 88.4598 124.195 88.8255 124.195 89.197C124.195 89.5685 124.287 89.9343 124.461 90.262L128 94.862L125.348 97.513L120.748 93.98C120.456 93.7213 120.079 93.5785 119.688 93.5785C119.298 93.5785 118.921 93.7213 118.628 93.98C116.167 95.6322 113.4 96.7737 110.489 97.337C110.121 97.4312 109.79 97.6333 109.537 97.9173C109.284 98.2013 109.122 98.5543 109.071 98.931L108.364 104.765H104.654L103.947 98.931C103.87 98.5656 103.7 98.2265 103.452 97.9471C103.204 97.6676 102.888 97.4573 102.534 97.337C99.6239 96.7746 96.8561 95.633 94.3954 93.98C94.0695 93.8048 93.7054 93.7131 93.3354 93.7131C92.9655 93.7131 92.6012 93.8048 92.2754 93.98L87.6754 97.513L85.0244 94.862L88.5624 90.262C88.8212 89.9336 88.9619 89.5277 88.9619 89.1095C88.9619 88.6914 88.8212 88.2854 88.5624 87.957C86.9047 85.5 85.7609 82.7333 85.1995 79.823C85.1056 79.4552 84.9037 79.1238 84.6198 78.8718C84.3358 78.6198 83.9829 78.4586 83.6064 78.409L77.7725 77.698V73.99L83.6064 73.284C84.3174 73.103 84.6375 72.333 85.1995 71.87C85.5345 71.595 85.5254 71.024 85.5504 70.632C86.2354 68.2056 87.2488 65.8841 88.5624 63.732C88.7352 63.4047 88.8257 63.0402 88.8257 62.67C88.8257 62.2999 88.7352 61.9353 88.5624 61.608L85.0244 57.008L87.6735 54.355Z" fill="white" stroke="#0D1C2C" stroke-width="2" stroke-miterlimit="10"/>
<path d="M106.6 87.959C104.222 87.9588 101.897 87.2534 99.9193 85.9319C97.9418 84.6104 96.4006 82.7323 95.4905 80.5349C94.5804 78.3375 94.3423 75.9196 94.8063 73.5869C95.2702 71.2543 96.4155 69.1115 98.0972 67.4297C99.7789 65.7478 101.921 64.6024 104.254 64.1382C106.587 63.6741 109.005 63.912 111.202 64.8219C113.4 65.7319 115.278 67.273 116.599 69.2503C117.921 71.2277 118.627 73.5526 118.627 75.931C118.625 79.1201 117.357 82.1779 115.102 84.4331C112.847 86.6882 109.789 87.9563 106.6 87.959Z" fill="white" stroke="#0D1C2C" stroke-width="2" stroke-miterlimit="10"/>
<path d="M50.7545 77.878C50.37 77.878 49.9943 77.764 49.6746 77.5504C49.3549 77.3368 49.1056 77.0332 48.9585 76.6779C48.8114 76.3227 48.7729 75.9318 48.8479 75.5547C48.9229 75.1776 49.108 74.8313 49.3799 74.5594C49.6518 74.2875 49.9982 74.1024 50.3753 74.0273C50.7524 73.9523 51.1433 73.9908 51.4985 74.138C51.8538 74.2851 52.1574 74.5343 52.371 74.854C52.5846 75.1737 52.6985 75.5495 52.6985 75.934C52.6935 76.448 52.4872 76.9396 52.1237 77.3031C51.7602 77.6666 51.2686 77.873 50.7545 77.878" fill="white"/>
<path d="M50.7545 77.878C50.37 77.878 49.9943 77.764 49.6746 77.5504C49.3549 77.3368 49.1056 77.0332 48.9585 76.6779C48.8114 76.3227 48.7729 75.9318 48.8479 75.5547C48.9229 75.1776 49.108 74.8313 49.3799 74.5594C49.6518 74.2875 49.9982 74.1024 50.3753 74.0273C50.7524 73.9523 51.1433 73.9908 51.4985 74.138C51.8538 74.2851 52.1574 74.5343 52.371 74.854C52.5846 75.1737 52.6985 75.5495 52.6985 75.934C52.6935 76.448 52.4872 76.9396 52.1237 77.3031C51.7602 77.6666 51.2686 77.873 50.7545 77.878" stroke="#0D1C2C" stroke-width="2" stroke-miterlimit="10"/>
</svg>
