<svg width="150" height="150" viewBox="0 0 150 150" fill="none" xmlns="http://www.w3.org/2000/svg">
<path d="M89.2 88.4196L103.238 88.5197L120.684 70.3196H30L42.347 83.1976C44.561 82.5796 47.01 81.8976 49.669 81.1716C58.159 78.8656 69.25 80.0646 79.532 84.2226C80.473 84.6056 81.432 84.9716 82.373 85.3226C84.9228 86.2175 87.4021 87.3018 89.79 88.5667" fill="white"/>
<path d="M89.2 88.4196L103.238 88.5197L120.684 70.3196H30L42.347 83.1976C44.561 82.5796 47.01 81.8976 49.669 81.1716C58.159 78.8656 69.25 80.0646 79.532 84.2226C80.473 84.6056 81.432 84.9716 82.373 85.3226C84.9228 86.2175 87.4021 87.3018 89.79 88.5667" stroke="#0D1C2C" stroke-width="2" stroke-miterlimit="10"/>
<path d="M43.9999 111.321C46.2439 111.321 50.7 112.354 56.342 113.662C64.462 115.54 74.5599 117.88 81.3589 117.88C82.6587 117.906 83.9572 117.784 85.2289 117.514C94.2989 115.326 111.144 101.903 116.029 96.8986C116.332 96.581 116.537 96.1833 116.622 95.7525C116.706 95.3218 116.665 94.876 116.504 94.4677C116.298 94.0756 115.979 93.7547 115.588 93.547C115.197 93.3393 114.752 93.2545 114.312 93.3037C113.096 93.3037 110.943 93.7877 107.601 96.0797C101.322 100.257 93.9342 102.454 86.3929 102.387C80.5569 102.387 75.201 101.101 71.309 98.7647C70.202 98.1017 68.532 97.0996 69.009 95.3646C69.175 94.7646 69.7279 93.7647 71.5629 93.7647C73.078 93.8544 74.586 94.0391 76.0779 94.3176C78.6876 94.7935 81.3274 95.0862 83.978 95.1936C84.7747 95.2878 85.5823 95.1752 86.3229 94.8667C86.8629 93.1587 84.885 92.0346 78.592 89.6456C77.572 89.2576 76.5079 88.8526 75.4449 88.4256C67.3079 85.1256 58.413 84.1416 52.35 85.7796C43.202 88.2796 36.93 90.0516 34.002 90.9136V113.569C38.547 112.057 41.829 111.32 44.002 111.32" fill="white"/>
<path d="M43.9999 111.321C46.2439 111.321 50.7 112.354 56.342 113.662C64.462 115.54 74.5599 117.88 81.3589 117.88C82.6587 117.906 83.9572 117.784 85.2289 117.514C94.2989 115.326 111.144 101.903 116.029 96.8986C116.332 96.581 116.537 96.1833 116.622 95.7525C116.706 95.3218 116.665 94.876 116.504 94.4677C116.298 94.0756 115.979 93.7547 115.588 93.547C115.197 93.3393 114.752 93.2545 114.312 93.3037C113.096 93.3037 110.943 93.7877 107.601 96.0797C101.322 100.257 93.9342 102.454 86.3929 102.387C80.5569 102.387 75.201 101.101 71.309 98.7647C70.202 98.1017 68.532 97.0996 69.009 95.3646C69.175 94.7646 69.7279 93.7647 71.5629 93.7647C73.078 93.8544 74.586 94.0391 76.0779 94.3176C78.6876 94.7935 81.3274 95.0862 83.978 95.1936C84.7747 95.2878 85.5823 95.1752 86.3229 94.8667C86.8629 93.1587 84.885 92.0346 78.592 89.6456C77.572 89.2576 76.5079 88.8526 75.4449 88.4256C67.3079 85.1256 58.413 84.1416 52.35 85.7796C43.202 88.2796 36.93 90.0516 34.002 90.9136V113.569C38.547 112.057 41.829 111.32 44.002 111.32" stroke="#0D1C2C" stroke-width="2" stroke-miterlimit="10"/>
<path d="M106.674 39.5626C104.43 39.5626 99.9744 38.5296 94.3314 37.2226C86.2124 35.3446 76.1144 33.0036 69.3154 33.0036C68.0157 32.9767 66.7171 33.0996 65.4454 33.3697C56.3754 35.5577 39.5304 48.9816 34.6454 53.9846C34.3424 54.3024 34.1366 54.7002 34.0524 55.1312C33.9683 55.5621 34.0092 56.0082 34.1704 56.4166C34.3763 56.8089 34.6957 57.1299 35.087 57.3375C35.4783 57.5452 35.9232 57.63 36.3635 57.5806C37.5785 57.5806 39.7325 57.0967 43.0745 54.8037C49.3531 50.626 56.7412 48.4292 64.2824 48.4976C70.1184 48.4976 75.4745 49.7836 79.3665 52.1196C80.4735 52.7816 82.1424 53.7847 81.6664 55.5197C81.5004 56.1197 80.9474 57.1196 79.1124 57.1196C77.5973 57.0295 76.0894 56.8445 74.5974 56.5656C71.9877 56.0902 69.348 55.7975 66.6974 55.6897C65.901 55.5961 65.0939 55.7086 64.3535 56.0166C63.8125 57.7246 65.7914 58.8496 72.0844 61.2376C73.1044 61.6256 74.1684 62.0306 75.2314 62.4586C83.3684 65.7586 92.2634 66.7427 98.3314 65.1037C107.479 62.6037 113.75 60.8326 116.679 59.9696V37.3147C112.134 38.8267 108.851 39.5626 106.679 39.5626" fill="white"/>
<path d="M106.674 39.5626C104.43 39.5626 99.9744 38.5296 94.3314 37.2226C86.2124 35.3446 76.1144 33.0036 69.3154 33.0036C68.0157 32.9767 66.7171 33.0996 65.4454 33.3697C56.3754 35.5577 39.5304 48.9816 34.6454 53.9846C34.3424 54.3024 34.1366 54.7002 34.0524 55.1312C33.9683 55.5621 34.0092 56.0082 34.1704 56.4166C34.3763 56.8089 34.6957 57.1299 35.087 57.3375C35.4783 57.5452 35.9232 57.63 36.3635 57.5806C37.5785 57.5806 39.7325 57.0967 43.0745 54.8037C49.3531 50.626 56.7412 48.4292 64.2824 48.4976C70.1184 48.4976 75.4745 49.7836 79.3665 52.1196C80.4735 52.7816 82.1424 53.7847 81.6664 55.5197C81.5004 56.1197 80.9474 57.1196 79.1124 57.1196C77.5973 57.0295 76.0894 56.8445 74.5974 56.5656C71.9877 56.0902 69.348 55.7975 66.6974 55.6897C65.901 55.5961 65.0939 55.7086 64.3535 56.0166C63.8125 57.7246 65.7914 58.8496 72.0844 61.2376C73.1044 61.6256 74.1684 62.0306 75.2314 62.4586C83.3684 65.7586 92.2634 66.7427 98.3314 65.1037C107.479 62.6037 113.75 60.8326 116.679 59.9696V37.3147C112.134 38.8267 108.851 39.5626 106.679 39.5626" stroke="#0D1C2C" stroke-width="2" stroke-miterlimit="10"/>
</svg>
