<svg width="150" height="150" viewBox="0 0 150 150" fill="none" xmlns="http://www.w3.org/2000/svg">
<path d="M121.458 48.55H101.371C100.96 48.55 100.553 48.469 100.173 48.3116C99.7929 48.1543 99.4478 47.9236 99.1572 47.6329C98.8665 47.3421 98.636 46.9969 98.4787 46.6171C98.3215 46.2372 98.2406 45.8301 98.2408 45.4189V25.332C98.2408 24.5018 98.5705 23.7057 99.1575 23.1187C99.7445 22.5317 100.541 22.202 101.371 22.202H46.8498C46.4386 22.2018 46.0315 22.2827 45.6516 22.4399C45.2718 22.5972 44.9266 22.8277 44.6359 23.1183C44.3451 23.409 44.1145 23.7541 43.9571 24.1339C43.7997 24.5137 43.7187 24.9208 43.7188 25.332V124.463C43.719 125.293 44.049 126.089 44.6361 126.676C45.2233 127.263 46.0195 127.593 46.8498 127.593H121.458C122.288 127.593 123.084 127.263 123.671 126.676C124.259 126.089 124.588 125.293 124.589 124.463V45.4189C124.589 46.2493 124.259 47.0458 123.672 47.6329C123.085 48.2201 122.288 48.55 121.458 48.55V48.55Z" stroke="#0D1C2C" stroke-width="2" stroke-miterlimit="10"/>
<path d="M100.571 22L124.783 46.228" stroke="#0D1C2C" stroke-width="2.277" stroke-miterlimit="10"/>
<path d="M43.465 93.9031C53.1107 93.9031 60.93 86.1071 60.93 76.4901C60.93 66.8732 53.1107 59.0771 43.465 59.0771C33.8193 59.0771 26 66.8732 26 76.4901C26 86.1071 33.8193 93.9031 43.465 93.9031Z" fill="white" stroke="#0D1C2C" stroke-width="2.003" stroke-miterlimit="10"/>
<path d="M43.4653 81.2621C46.4455 81.2621 48.8613 78.6779 48.8613 75.4901C48.8613 72.3024 46.4455 69.7181 43.4653 69.7181C40.4852 69.7181 38.0693 72.3024 38.0693 75.4901C38.0693 78.6779 40.4852 81.2621 43.4653 81.2621Z" stroke="#0D1C2C" stroke-width="2.003" stroke-miterlimit="10"/>
<path d="M43.4648 93.9031C47.7356 93.9049 51.858 92.3368 55.0479 89.4971C54.2115 87.0914 52.6469 85.0058 50.5712 83.5299C48.4955 82.054 46.0118 81.261 43.4648 81.261C40.9179 81.261 38.4342 82.054 36.3585 83.5299C34.2828 85.0058 32.7182 87.0914 31.8818 89.4971C35.0717 92.3368 39.1941 93.9049 43.4648 93.9031V93.9031Z" stroke="#0D1C2C" stroke-width="2.003" stroke-miterlimit="10"/>
<path d="M56.8745 88.4988L51.1768 92.633L55.311 98.3308L61.0088 94.1966L56.8745 88.4988Z" fill="white" stroke="#0D1C2C" stroke-width="1.99905" stroke-miterlimit="10"/>
<path d="M65.771 97.0447C63.9225 94.4979 60.3596 93.9318 57.813 95.7802C55.2665 97.6286 54.7007 101.192 56.5493 103.738L71.4955 124.33C73.3441 126.876 76.907 127.443 79.4535 125.594C82.0001 123.746 82.5659 120.183 80.7173 117.636L65.771 97.0447Z" fill="white" stroke="#0D1C2C" stroke-width="2" stroke-miterlimit="10"/>
<path d="M79.2627 62.6582H112.328" stroke="#0D1C2C" stroke-width="2" stroke-miterlimit="10" stroke-linecap="round"/>
<path d="M79.2627 72.6582H112.328" stroke="#0D1C2C" stroke-width="2" stroke-miterlimit="10" stroke-linecap="round"/>
<path d="M79.2627 82.6582H112.328" stroke="#0D1C2C" stroke-width="2" stroke-miterlimit="10" stroke-linecap="round"/>
<path d="M79.2627 92.6582H95.3277" stroke="#0D1C2C" stroke-width="2" stroke-miterlimit="10" stroke-linecap="round"/>
<path d="M86.5676 34.114H56.6106C55.6623 34.114 54.8936 34.8827 54.8936 35.831V42.31C54.8936 43.2583 55.6623 44.027 56.6106 44.027H86.5676C87.5158 44.027 88.2846 43.2583 88.2846 42.31V35.831C88.2846 34.8827 87.5158 34.114 86.5676 34.114Z" stroke="#0D1C2C" stroke-width="2" stroke-miterlimit="10" stroke-linecap="round"/>
</svg>
