<svg width="62" height="32" viewBox="0 0 62 32" fill="none" xmlns="http://www.w3.org/2000/svg">
<g opacity="0.9">
<g opacity="0.5">
<path opacity="0.5" d="M12.13 11.6236C12.13 11.6236 18.83 15.5426 33.089 11.2236C35.527 10.4876 41.9541 7.90162 43.9771 7.24762C47.7001 6.04762 54.4599 4.91661 59.9869 7.42661C55.7407 7.17357 51.4816 7.61023 47.375 8.71962C45.424 9.31962 39.703 11.8036 37.028 12.7666C33.568 14.0537 29.9813 14.9702 26.328 15.5006C26.328 15.5006 16.441 16.3056 12.13 11.6236Z" fill="white"/>
<path opacity="0.5" d="M57.022 12.9778C59.196 10.1718 59.156 9.19577 59.975 7.46777C59.975 7.46777 62.0179 12.4038 54.2059 17.7358C54.2059 17.7358 45.1419 23.4588 44.6639 27.9808C44.6639 27.9808 44.5099 22.9408 50.6429 18.1808C52.3039 16.8948 54.947 15.6498 57.022 12.9778Z" fill="white"/>
<path opacity="0.5" d="M28.156 25.3636C22.047 23.4166 11.106 20.9796 5.43201 26.1586C5.43201 26.1586 13.22 16.1246 32.39 24.4136C33.569 24.9266 38.0371 27.4006 41.3511 28.2696C44.6977 29.1257 48.181 29.3088 51.599 28.8083C55.017 28.3077 58.3015 27.1334 61.2621 25.3536C61.2621 25.3536 53.471 34.1716 40.218 30.3706C37.835 29.6856 30.808 26.2086 28.156 25.3636Z" fill="white"/>
<path opacity="0.5" d="M12.433 28.083C9.34398 29.069 3.81402 30.298 0.947021 27.683C0.947021 27.683 4.387 33.957 14.078 29.771C14.678 29.51 16.812 28.481 18.61 27.82C20.874 26.988 25.0819 25.764 29.1689 28.092C27.7986 26.7345 26.0813 25.7798 24.205 25.3326C22.3286 24.8853 20.3654 24.9626 18.53 25.556C17.327 25.899 13.775 27.654 12.433 28.083Z" fill="white"/>
<path opacity="0.5" d="M53.646 9.59473C53.646 9.59473 43.5839 13.2347 43.1019 22.4567C45.6527 17.4623 49.2489 13.0756 53.646 9.59473Z" fill="white"/>
<path opacity="0.5" d="M11.5911 3.28478L22.854 0.130781C22.854 0.130781 28.006 -1.44722 27.644 6.31878V11.0508C27.644 11.0508 27.0471 -0.597219 11.5911 3.28478Z" fill="white"/>
</g>
</g>
</svg>
