<svg width="150" height="150" viewBox="0 0 150 150" fill="none" xmlns="http://www.w3.org/2000/svg">
<path d="M105.739 26.2238H76.749C76.725 24.0345 75.8384 21.9429 74.2818 20.4032C72.7251 18.8636 70.624 18 68.4345 18C66.245 18 64.1439 18.8636 62.5872 20.4032C61.0306 21.9429 60.144 24.0345 60.12 26.2238H31.13C30.2999 26.2238 29.5037 26.5536 28.9167 27.1406C28.3298 27.7276 28 28.5237 28 29.3538V128.484C27.9999 128.895 28.0807 129.302 28.238 129.682C28.3952 130.062 28.6258 130.407 28.9164 130.698C29.2071 130.988 29.5522 131.219 29.932 131.376C30.3118 131.534 30.7189 131.615 31.13 131.615H105.739C106.15 131.615 106.557 131.534 106.937 131.376C107.317 131.219 107.662 130.988 107.953 130.698C108.243 130.407 108.474 130.062 108.631 129.682C108.788 129.302 108.869 128.895 108.869 128.484V29.3538C108.869 28.5237 108.539 27.7276 107.952 27.1406C107.365 26.5536 106.569 26.2238 105.739 26.2238V26.2238Z" fill="white" stroke="#0D1C2C" stroke-width="2" stroke-miterlimit="10"/>
<path d="M44.5361 55.1238L47.9821 59.2438" stroke="#0D1C2C" stroke-width="2" stroke-miterlimit="10" stroke-linecap="round"/>
<path d="M57.473 50.8118L48.001 59.2818" stroke="#0D1C2C" stroke-width="2" stroke-miterlimit="10" stroke-linecap="round"/>
<path d="M63.7607 49.7598H82.8317" stroke="#0D1C2C" stroke-width="2" stroke-miterlimit="10" stroke-linecap="round"/>
<path d="M63.7607 59.9238H73.0527" stroke="#0D1C2C" stroke-width="2" stroke-miterlimit="10" stroke-linecap="round"/>
<path d="M44.5361 77.6478L47.9821 81.7678" stroke="#0D1C2C" stroke-width="2.361" stroke-miterlimit="10" stroke-linecap="round"/>
<path d="M57.473 73.3358L48.001 81.8058" stroke="#0D1C2C" stroke-width="2.361" stroke-miterlimit="10" stroke-linecap="round"/>
<path d="M63.7607 72.2828H82.8317" stroke="#0D1C2C" stroke-width="2" stroke-miterlimit="10" stroke-linecap="round"/>
<path d="M63.7607 82.4478H73.0527" stroke="#0D1C2C" stroke-width="2" stroke-miterlimit="10" stroke-linecap="round"/>
<path d="M44.5361 101.789L47.9821 105.909" stroke="#0D1C2C" stroke-width="2" stroke-miterlimit="10" stroke-linecap="round"/>
<path d="M57.473 97.4758L48.001 105.946" stroke="#0D1C2C" stroke-width="2" stroke-miterlimit="10" stroke-linecap="round"/>
<path d="M63.7607 96.4238H82.8317" stroke="#0D1C2C" stroke-width="2" stroke-miterlimit="10" stroke-linecap="round"/>
<path d="M63.7607 106.589H73.0527" stroke="#0D1C2C" stroke-width="2" stroke-miterlimit="10" stroke-linecap="round"/>
<path d="M98.9809 34.8777H37.8839C36.1553 34.8777 34.7539 36.279 34.7539 38.0077V119.529C34.7539 121.257 36.1553 122.659 37.8839 122.659H98.9809C100.71 122.659 102.111 121.257 102.111 119.529V38.0077C102.111 36.279 100.71 34.8777 98.9809 34.8777Z" stroke="#0D1C2C" stroke-width="2" stroke-miterlimit="10"/>
<path d="M105.454 92.1817C115.071 92.1817 122.867 84.3856 122.867 74.7687C122.867 65.1518 115.071 57.3557 105.454 57.3557C95.8371 57.3557 88.041 65.1518 88.041 74.7687C88.041 84.3856 95.8371 92.1817 105.454 92.1817Z" fill="white" stroke="#0D1C2C" stroke-width="2" stroke-miterlimit="10"/>
<path d="M105.454 79.5407C108.426 79.5407 110.834 76.9565 110.834 73.7687C110.834 70.5809 108.426 67.9967 105.454 67.9967C102.483 67.9967 100.074 70.5809 100.074 73.7687C100.074 76.9565 102.483 79.5407 105.454 79.5407Z" fill="white" stroke="#0D1C2C" stroke-width="2" stroke-miterlimit="10"/>
<path d="M105.454 92.1817C109.714 92.1844 113.825 90.618 117.002 87.7817C116.175 85.3763 114.617 83.2892 112.547 81.8117C110.476 80.3342 107.996 79.54 105.452 79.54C102.909 79.54 100.428 80.3342 98.3578 81.8117C96.2873 83.2892 94.7296 85.3763 93.9023 87.7817C97.081 90.619 101.194 92.1854 105.454 92.1817V92.1817Z" fill="white" stroke="#0D1C2C" stroke-width="2" stroke-miterlimit="10"/>
<path d="M68.432 26.8718C69.1074 26.8718 69.655 26.3242 69.655 25.6488C69.655 24.9733 69.1074 24.4258 68.432 24.4258C67.7565 24.4258 67.209 24.9733 67.209 25.6488C67.209 26.3242 67.7565 26.8718 68.432 26.8718Z" fill="white"/>
<path d="M49.7588 27.0908V34.3298" stroke="#0D1C2C" stroke-width="2" stroke-miterlimit="10" stroke-linecap="round"/>
<path d="M87.1885 27.0417V34.2807" stroke="#0D1C2C" stroke-width="2" stroke-miterlimit="10" stroke-linecap="round"/>
</svg>
