<svg width="150" height="150" viewBox="0 0 150 150" fill="none" xmlns="http://www.w3.org/2000/svg">
<path d="M106.74 23.305H32.13C30.4013 23.305 29 24.7063 29 26.435V125.566C29 127.295 30.4013 128.696 32.13 128.696H106.74C108.469 128.696 109.87 127.295 109.87 125.566V26.435C109.87 24.7063 108.469 23.305 106.74 23.305Z" fill="white" stroke="#0D1C2C" stroke-width="2" stroke-miterlimit="10"/>
<path d="M88.4049 15.11H50.4649C49.7039 15.11 49.0869 15.727 49.0869 16.488V28.492C49.0869 29.253 49.7039 29.87 50.4649 29.87H88.4049C89.166 29.87 89.7829 29.253 89.7829 28.492V16.488C89.7829 15.727 89.166 15.11 88.4049 15.11Z" fill="white" stroke="#0D1C2C" stroke-width="2.112" stroke-miterlimit="10"/>
<path d="M69.4348 7C67.2668 7.00198 65.1854 7.85115 63.6347 9.3663C62.0841 10.8815 61.1869 12.9426 61.1348 15.11H77.7448C77.6925 12.9409 76.794 10.8782 75.2412 9.36281C73.6884 7.84738 71.6045 6.99937 69.4348 7Z" fill="white" stroke="#0D1C2C" stroke-width="2.112" stroke-miterlimit="10"/>
<path d="M54.3877 51.826H67.5617" stroke="#0D1C2C" stroke-width="2" stroke-miterlimit="10" stroke-linecap="round"/>
<path d="M42.7793 63.565H81.9093" stroke="#0D1C2C" stroke-width="2" stroke-miterlimit="10" stroke-linecap="round"/>
<path d="M42.7793 74.391H65.6053" stroke="#0D1C2C" stroke-width="2" stroke-miterlimit="10" stroke-linecap="round"/>
<path d="M72.9092 74.391H73.0832" stroke="#0D1C2C" stroke-width="2" stroke-miterlimit="10" stroke-linecap="round"/>
<path d="M42.7793 51.826H48.3883" stroke="#0D1C2C" stroke-width="2" stroke-miterlimit="10" stroke-linecap="round"/>
<path d="M42.7793 93.826V106.348" stroke="#0D1C2C" stroke-width="2" stroke-miterlimit="10" stroke-linecap="round"/>
<path d="M59.2998 29.434V24.13" stroke="#0D1C2C" stroke-width="2.112" stroke-miterlimit="10" stroke-linecap="round"/>
<path d="M120.126 93.217H75.2998V142.043H120.126V93.217Z" fill="white"/>
<path d="M79.2998 29.434V24.13" stroke="#0D1C2C" stroke-width="2.112" stroke-miterlimit="10" stroke-linecap="round"/>
<path d="M94.4248 93.929L99.1628 90.404" stroke="#0D1C2C" stroke-width="1.737" stroke-miterlimit="10" stroke-linecap="round"/>
<path d="M94.4248 93.891L99.1628 97.416" stroke="#0D1C2C" stroke-width="1.737" stroke-miterlimit="10" stroke-linecap="round"/>
<path d="M96.4775 93.967H106.712" stroke="#0D1C2C" stroke-width="1.737" stroke-miterlimit="10" stroke-linecap="round"/>
<path d="M106.712 93.967V106.816" stroke="#0D1C2C" stroke-width="1.737" stroke-miterlimit="10" stroke-linecap="round"/>
<path d="M84.6032 125.287L79.8652 128.812" stroke="#0D1C2C" stroke-width="1.737" stroke-miterlimit="10" stroke-linecap="round"/>
<path d="M84.6032 125.325L79.8652 121.8" stroke="#0D1C2C" stroke-width="1.737" stroke-miterlimit="10" stroke-linecap="round"/>
<path d="M82.5504 125.249H72.3164" stroke="#0D1C2C" stroke-width="1.737" stroke-miterlimit="10" stroke-linecap="round"/>
<path d="M72.3164 125.249V112.4" stroke="#0D1C2C" stroke-width="1.737" stroke-miterlimit="10" stroke-linecap="round"/>
<path d="M117.912 121.319C117.861 121.127 117.747 120.958 117.589 120.837C117.431 120.716 117.238 120.651 117.039 120.652H113.933C113.819 120.391 113.696 120.137 113.564 119.889L115.626 117.829C115.776 117.679 115.868 117.48 115.886 117.269C115.905 117.057 115.848 116.846 115.726 116.672C114.511 114.93 112.939 113.466 111.115 112.377C110.943 112.275 110.741 112.233 110.542 112.258C110.343 112.283 110.158 112.373 110.015 112.515L107.844 114.687C107.677 114.62 107.509 114.556 107.339 114.493V111.501C107.34 111.294 107.27 111.093 107.14 110.932C107.01 110.771 106.829 110.66 106.626 110.617C104.554 110.171 102.41 110.171 100.337 110.617C100.135 110.661 99.9546 110.772 99.8249 110.933C99.6952 111.094 99.6244 111.294 99.6243 111.501V114.493C99.4543 114.553 99.2873 114.618 99.1243 114.687L96.9523 112.515C96.8107 112.373 96.6254 112.282 96.4261 112.257C96.2267 112.232 96.0247 112.274 95.8523 112.377C94.0272 113.464 92.4543 114.927 91.2383 116.669C91.1157 116.843 91.0584 117.054 91.0767 117.266C91.095 117.478 91.1877 117.676 91.3383 117.826L93.4003 119.888C93.267 120.135 93.144 120.389 93.0313 120.651H89.9243C89.726 120.651 89.5331 120.716 89.3754 120.837C89.2177 120.957 89.1039 121.126 89.0513 121.317C88.7033 122.594 88.5274 123.912 88.5283 125.236C88.5287 126.029 88.5909 126.821 88.7143 127.605C88.7481 127.818 88.8568 128.012 89.0208 128.152C89.1849 128.293 89.3935 128.37 89.6093 128.37H92.5093C92.6294 128.787 92.7726 129.196 92.9383 129.597L92.1263 130.409C92.1074 130.427 92.0901 130.446 92.0743 130.467L90.7673 131.774C90.625 131.916 90.5342 132.101 90.5094 132.3C90.4846 132.5 90.5271 132.702 90.6303 132.874C91.7192 134.695 93.1805 136.265 94.9183 137.482C95.0919 137.605 95.3033 137.662 95.5151 137.644C95.7268 137.625 95.9253 137.533 96.0753 137.382L98.1373 135.322C98.6185 135.577 99.1174 135.797 99.6303 135.98V138.977C99.6294 139.184 99.6998 139.384 99.8294 139.545C99.9591 139.706 100.14 139.818 100.342 139.861C102.415 140.309 104.56 140.309 106.632 139.861C106.834 139.817 107.015 139.706 107.145 139.545C107.274 139.384 107.345 139.184 107.345 138.977V135.977C107.858 135.794 108.357 135.574 108.838 135.319L110.899 137.379C111.049 137.53 111.248 137.623 111.46 137.641C111.672 137.659 111.884 137.602 112.057 137.479C113.795 136.262 115.256 134.692 116.345 132.871C116.448 132.699 116.491 132.497 116.466 132.297C116.441 132.098 116.35 131.913 116.207 131.771L114.9 130.465C114.884 130.444 114.866 130.425 114.849 130.406L114.037 129.594C114.203 129.194 114.346 128.784 114.465 128.367H117.365C117.581 128.367 117.79 128.29 117.954 128.15C118.118 128.009 118.226 127.815 118.259 127.602C118.383 126.818 118.446 126.026 118.446 125.233C118.447 123.909 118.271 122.591 117.923 121.313L117.912 121.319Z" fill="white" stroke="#0D1C2C" stroke-width="1.737" stroke-miterlimit="10"/>
<path d="M103.481 131.522C106.452 131.522 108.862 129.113 108.862 126.141C108.862 123.169 106.452 120.76 103.481 120.76C100.509 120.76 98.0996 123.169 98.0996 126.141C98.0996 129.113 100.509 131.522 103.481 131.522Z" fill="white" stroke="#0D1C2C" stroke-width="1.737" stroke-miterlimit="10"/>
<path d="M103.495 124.244C105.435 124.244 107.007 122.672 107.007 120.732C107.007 118.792 105.435 117.22 103.495 117.22C101.556 117.22 99.9834 118.792 99.9834 120.732C99.9834 122.672 101.556 124.244 103.495 124.244Z" fill="white"/>
<path d="M103.495 121.92C104.151 121.92 104.684 121.388 104.684 120.731C104.684 120.074 104.151 119.542 103.495 119.542C102.838 119.542 102.306 120.074 102.306 120.731C102.306 121.388 102.838 121.92 103.495 121.92Z" fill="white"/>
<path d="M76.6123 110.45C84.9645 110.45 91.7353 103.679 91.7353 95.327C91.7353 86.9748 84.9645 80.204 76.6123 80.204C68.2601 80.204 61.4893 86.9748 61.4893 95.327C61.4893 103.679 68.2601 110.45 76.6123 110.45Z" fill="white" stroke="#0D1C2C" stroke-width="1.737" stroke-miterlimit="10"/>
<path d="M76.6266 80.837L76.5986 82.111" stroke="#0D1C2C" stroke-width="1.737" stroke-miterlimit="10" stroke-linecap="round"/>
<path d="M76.6266 108.629L76.5986 109.903" stroke="#0D1C2C" stroke-width="1.737" stroke-miterlimit="10" stroke-linecap="round"/>
<path d="M63.4197 95.37H62.0127" stroke="#0D1C2C" stroke-width="1.737" stroke-miterlimit="10" stroke-linecap="round"/>
<path d="M91.2127 95.37H89.8057" stroke="#0D1C2C" stroke-width="1.737" stroke-miterlimit="10" stroke-linecap="round"/>
<path d="M86.9525 105.637L85.9375 104.589" stroke="#0D1C2C" stroke-width="1.737" stroke-miterlimit="10" stroke-linecap="round"/>
<path d="M86.6967 84.884L85.8047 85.823" stroke="#0D1C2C" stroke-width="1.737" stroke-miterlimit="10" stroke-linecap="round"/>
<path d="M65.8291 105.637L66.8441 104.589" stroke="#0D1C2C" stroke-width="1.737" stroke-miterlimit="10" stroke-linecap="round"/>
<path d="M66.084 84.884L66.976 85.823" stroke="#0D1C2C" stroke-width="1.737" stroke-miterlimit="10" stroke-linecap="round"/>
<path d="M76.5761 97.626C77.3112 97.626 77.9071 97.0301 77.9071 96.295C77.9071 95.5599 77.3112 94.964 76.5761 94.964C75.841 94.964 75.2451 95.5599 75.2451 96.295C75.2451 97.0301 75.841 97.626 76.5761 97.626Z" fill="white"/>
<path d="M76.5475 86.977L76.5195 95.823" stroke="#0D1C2C" stroke-width="1.737" stroke-miterlimit="10" stroke-linecap="round"/>
<path d="M76.6045 96.267L83.1185 96.409" stroke="#0D1C2C" stroke-width="1.737" stroke-miterlimit="10" stroke-linecap="round"/>
</svg>
