<svg width="150" height="150" viewBox="0 0 150 150" fill="none" xmlns="http://www.w3.org/2000/svg">
<path d="M101.74 21.304H27.13C25.4013 21.304 24 22.7054 24 24.434V123.565C24 125.294 25.4013 126.695 27.13 126.695H101.74C103.469 126.695 104.87 125.294 104.87 123.565V24.434C104.87 22.7054 103.469 21.304 101.74 21.304Z" stroke="#0D1C2C" stroke-width="2" stroke-miterlimit="10"/>
<path d="M83.4049 13.11H45.4649C44.7039 13.11 44.0869 13.7269 44.0869 14.488V26.492C44.0869 27.253 44.7039 27.87 45.4649 27.87H83.4049C84.166 27.87 84.7829 27.253 84.7829 26.492V14.488C84.7829 13.7269 84.166 13.11 83.4049 13.11Z" fill="white" stroke="#0D1C2C" stroke-width="2.112" stroke-miterlimit="10"/>
<path d="M64.4349 5C62.2661 5.00068 60.1833 5.84927 58.6316 7.36456C57.0799 8.87986 56.1821 10.9417 56.1299 13.11H72.7399C72.6877 10.9417 71.7899 8.87986 70.2382 7.36456C68.6864 5.84927 66.6038 5.00068 64.4349 5Z" stroke="#0D1C2C" stroke-width="2.112" stroke-miterlimit="10"/>
<path d="M49.3877 49.826H62.5617" stroke="#0D1C2C" stroke-width="2" stroke-miterlimit="10" stroke-linecap="round"/>
<path d="M37.7783 61.565H76.9083" stroke="#0D1C2C" stroke-width="2" stroke-miterlimit="10" stroke-linecap="round"/>
<path d="M37.7783 72.3911H60.6043" stroke="#0D1C2C" stroke-width="2" stroke-miterlimit="10" stroke-linecap="round"/>
<path d="M67.9092 72.3911H68.0832" stroke="#0D1C2C" stroke-width="2" stroke-miterlimit="10" stroke-linecap="round"/>
<path d="M37.7783 49.826H43.3873" stroke="#0D1C2C" stroke-width="2" stroke-miterlimit="10" stroke-linecap="round"/>
<path d="M37.7783 91.826V104.348" stroke="#0D1C2C" stroke-width="2" stroke-miterlimit="10" stroke-linecap="round"/>
<path d="M54.2998 27.434V22.13" stroke="#0D1C2C" stroke-width="2.112" stroke-miterlimit="10" stroke-linecap="round"/>
<path d="M126.735 88.478H69.9092V145.304H126.735V88.478Z" fill="white"/>
<path d="M74.2998 27.434V22.13" stroke="#0D1C2C" stroke-width="2.112" stroke-miterlimit="10" stroke-linecap="round"/>
<path d="M71.8992 132.676C70.7076 133.867 70.0381 135.484 70.0381 137.169C70.0381 138.854 70.7076 140.47 71.8992 141.662C73.0908 142.853 74.7069 143.523 76.3921 143.523C78.0773 143.523 79.6935 142.853 80.8851 141.662L96.0762 126.478L87.0862 117.488L71.8992 132.676Z" stroke="#0D1C2C" stroke-width="2" stroke-miterlimit="10"/>
<path d="M105.643 113.398L113.643 105.398L120.601 101.964L124.868 93.7079L119.773 88.6399L111.607 92.959L107.847 100.235L100.166 107.913L105.643 113.398Z" stroke="#0D1C2C" stroke-width="2" stroke-miterlimit="10"/>
<path d="M93.7989 116.94L83.8869 107.027L82.9529 107.421C81.9188 107.864 80.805 108.091 79.68 108.088C78.4859 108.089 77.3056 107.833 76.2187 107.339C75.1317 106.845 74.1635 106.123 73.3793 105.222C72.5951 104.322 72.0131 103.264 71.6726 102.119C71.3322 100.975 71.2413 99.7706 71.4059 98.5879L76.6129 103.799H84.1638V96.24L79.3129 91.3889C80.6846 91.3295 82.0499 91.6089 83.288 92.2024C84.5261 92.796 85.599 93.6853 86.4116 94.792C87.2243 95.8987 87.7518 97.1886 87.9475 98.5476C88.1433 99.9066 88.0013 101.293 87.534 102.584L87.2119 103.484L97.0609 113.333" stroke="#0D1C2C" stroke-width="2" stroke-miterlimit="10"/>
<path d="M96.9398 113.215C100.14 116.58 107.234 124.248 110.432 127.615L111.339 127.315C112.641 126.881 114.031 126.774 115.385 127.005C116.738 127.235 118.014 127.795 119.1 128.636C120.185 129.477 121.047 130.572 121.609 131.825C122.17 133.078 122.414 134.45 122.32 135.82L117.595 130.846L110.039 130.653L109.847 138.201L114.923 143.54C114.541 143.583 114.158 143.599 113.774 143.589C111.561 143.529 109.462 142.594 107.937 140.989C106.413 139.383 105.587 137.239 105.641 135.026C105.666 133.901 105.922 132.793 106.392 131.771L106.809 130.848C103.591 127.461 96.4739 119.772 93.2549 116.384" stroke="#0D1C2C" stroke-width="2" stroke-miterlimit="10"/>
</svg>
