<svg width="150" height="150" viewBox="0 0 150 150" fill="none" xmlns="http://www.w3.org/2000/svg">
<path d="M108.74 27.305H34.13C32.4013 27.305 31 28.7063 31 30.435V129.566C31 131.295 32.4013 132.696 34.13 132.696H108.74C110.469 132.696 111.87 131.295 111.87 129.566V30.435C111.87 28.7063 110.469 27.305 108.74 27.305Z" stroke="#0D1C2C" stroke-width="2" stroke-miterlimit="10"/>
<path d="M90.4049 19.11H52.4649C51.7039 19.11 51.0869 19.7269 51.0869 20.488V32.492C51.0869 33.253 51.7039 33.87 52.4649 33.87H90.4049C91.166 33.87 91.7829 33.253 91.7829 32.492V20.488C91.7829 19.7269 91.166 19.11 90.4049 19.11Z" fill="white" stroke="#0D1C2C" stroke-width="2.112" stroke-miterlimit="10"/>
<path d="M71.4348 11C69.2668 11.002 67.1854 11.8511 65.6347 13.3663C64.0841 14.8814 63.1869 16.9426 63.1348 19.11H79.7448C79.6925 16.9409 78.794 14.8782 77.2412 13.3628C75.6884 11.8474 73.6045 10.9994 71.4348 11V11Z" stroke="#0D1C2C" stroke-width="2.112" stroke-miterlimit="10"/>
<path d="M56.3877 55.826H69.5617" stroke="#0D1C2C" stroke-width="2" stroke-miterlimit="10" stroke-linecap="round"/>
<path d="M44.7783 67.565H83.9083" stroke="#0D1C2C" stroke-width="2" stroke-miterlimit="10" stroke-linecap="round"/>
<path d="M44.7783 78.3909H67.6043" stroke="#0D1C2C" stroke-width="2" stroke-miterlimit="10" stroke-linecap="round"/>
<path d="M74.9092 78.3909H75.0832" stroke="#0D1C2C" stroke-width="2" stroke-miterlimit="10" stroke-linecap="round"/>
<path d="M44.7783 55.826H50.3873" stroke="#0D1C2C" stroke-width="2" stroke-miterlimit="10" stroke-linecap="round"/>
<path d="M44.7783 97.826V110.348" stroke="#0D1C2C" stroke-width="2" stroke-miterlimit="10" stroke-linecap="round"/>
<path d="M61.2998 33.4339V28.1299" stroke="#0D1C2C" stroke-width="2.112" stroke-miterlimit="10" stroke-linecap="round"/>
<path d="M81.2998 33.4339V28.1299" stroke="#0D1C2C" stroke-width="2.112" stroke-miterlimit="10" stroke-linecap="round"/>
<path d="M101.881 138.994C111.498 138.994 119.294 131.198 119.294 121.581C119.294 111.964 111.498 104.168 101.881 104.168C92.2638 104.168 84.4678 111.964 84.4678 121.581C84.4678 131.198 92.2638 138.994 101.881 138.994Z" fill="white" stroke="#0D1C2C" stroke-width="2" stroke-miterlimit="10"/>
<path d="M105.597 120.809C105.237 120.48 104.817 120.223 104.361 120.051C103.902 119.875 103.285 119.681 102.51 119.469V115.569C102.874 115.673 103.204 115.872 103.466 116.145C103.728 116.419 103.912 116.757 104 117.126C104.041 117.41 104.185 117.669 104.405 117.854C104.625 118.038 104.905 118.135 105.192 118.126C105.346 118.128 105.5 118.099 105.643 118.04C105.785 117.981 105.914 117.893 106.022 117.782C106.131 117.677 106.218 117.551 106.276 117.412C106.335 117.272 106.364 117.122 106.363 116.971C106.354 116.649 106.276 116.332 106.134 116.042C105.967 115.684 105.748 115.352 105.485 115.058C105.145 114.652 104.716 114.331 104.23 114.121C103.681 113.897 103.101 113.756 102.51 113.705V112.695C102.51 112.181 102.31 111.924 101.91 111.923C101.51 111.923 101.32 112.186 101.32 112.715V113.705C100.218 113.736 99.1642 114.162 98.35 114.905C97.7883 115.534 97.4381 116.324 97.3484 117.163C97.2587 118.001 97.4341 118.847 97.85 119.581C98.1925 120.098 98.6649 120.515 99.22 120.792C99.8935 121.118 100.597 121.378 101.32 121.569V125.926C100.949 125.833 100.604 125.658 100.31 125.414C100.07 125.208 99.8766 124.953 99.742 124.667C99.5743 124.283 99.4271 123.89 99.301 123.49C99.2354 123.265 99.0942 123.069 98.901 122.936C98.6898 122.797 98.4406 122.727 98.188 122.736C98.0242 122.732 97.8615 122.763 97.7103 122.826C97.5591 122.889 97.4227 122.983 97.31 123.102C97.2005 123.206 97.113 123.332 97.0529 123.47C96.9927 123.609 96.9611 123.759 96.96 123.91C96.9647 124.338 97.0531 124.761 97.22 125.155C97.4165 125.606 97.6922 126.018 98.034 126.371C98.4247 126.782 98.8895 127.116 99.404 127.355C100.011 127.631 100.659 127.805 101.323 127.87V130.401C101.308 130.622 101.354 130.842 101.457 131.038C101.511 131.111 101.584 131.169 101.667 131.206C101.75 131.242 101.841 131.257 101.932 131.248C102.027 131.26 102.124 131.242 102.209 131.196C102.294 131.151 102.362 131.08 102.405 130.994C102.492 130.733 102.529 130.459 102.514 130.185V127.85C103.329 127.799 104.122 127.559 104.829 127.15C105.452 126.786 105.963 126.258 106.306 125.624C106.638 125.01 106.81 124.322 106.806 123.624C106.813 123.084 106.705 122.548 106.49 122.053C106.286 121.581 105.982 121.159 105.598 120.817L105.597 120.809ZM101.32 119.131C100.861 118.982 100.434 118.749 100.061 118.443C99.7889 118.123 99.6418 117.715 99.647 117.295C99.6521 116.875 99.8091 116.471 100.089 116.158C100.45 115.865 100.87 115.653 101.32 115.537V119.131ZM103.973 125.266C103.583 125.674 103.069 125.94 102.511 126.024V121.924C103.05 122.07 103.552 122.326 103.987 122.676C104.158 122.837 104.291 123.033 104.377 123.251C104.464 123.469 104.501 123.703 104.487 123.937C104.493 124.431 104.308 124.909 103.972 125.271" fill="#0D1C2C"/>
</svg>
